<svg data-v-423bf9ae="" xmlns="http://www.w3.org/2000/svg" viewBox="0 0 680 90" class="iconLeft"><!----><!----><!----><g data-v-423bf9ae="" id="d8b9a8d2-035f-438c-b484-2449147c7634" fill="black" transform="matrix(4.8979591836734695,0,0,4.8979591836734695,140,15)"><path d="M10.50 12.25L0 12.25L0 0L10.50 0L10.50 1.75L12.25 1.75L12.25 5.25L10.50 5.25L10.50 7L12.25 7L12.25 10.50L10.50 10.50L10.50 12.25ZM3.50 1.75L3.50 5.25L8.75 5.25L8.75 1.75L3.50 1.75ZM3.50 7L3.50 10.50L8.75 10.50L8.75 7L3.50 7ZM24.50 12.25L15.75 12.25L15.75 10.50L14 10.50L14 5.25L15.75 5.25L15.75 3.50L24.50 3.50L24.50 5.25L26.25 5.25L26.25 8.75L17.50 8.75L17.50 10.50L24.50 10.50L24.50 12.25ZM17.50 5.25L17.50 7L22.75 7L22.75 5.25L17.50 5.25ZM40.25 12.25L29.75 12.25L29.75 10.50L28 10.50L28 8.75L29.75 8.75L29.75 7L36.75 7L36.75 5.25L29.75 5.25L29.75 3.50L38.50 3.50L38.50 5.25L40.25 5.25L40.25 12.25ZM31.50 8.75L31.50 10.50L36.75 10.50L36.75 8.75L31.50 8.75ZM50.75 12.25L47.25 12.25L47.25 5.25L43.75 5.25L43.75 3.50L47.25 3.50L47.25 0L50.75 0L50.75 3.50L54.25 3.50L54.25 5.25L50.75 5.25L50.75 12.25ZM66.50 12.25L59.50 12.25L59.50 10.50L57.75 10.50L57.75 8.75L56 8.75L56 3.50L57.75 3.50L57.75 1.75L59.50 1.75L59.50 0L66.50 0L66.50 1.75L68.25 1.75L68.25 3.50L64.75 3.50L64.75 1.75L61.25 1.75L61.25 3.50L59.50 3.50L59.50 8.75L61.25 8.75L61.25 10.50L64.75 10.50L64.75 8.75L68.25 8.75L68.25 10.50L66.50 10.50L66.50 12.25ZM80.50 12.25L71.75 12.25L71.75 10.50L70 10.50L70 5.25L71.75 5.25L71.75 3.50L80.50 3.50L80.50 5.25L82.25 5.25L82.25 10.50L80.50 10.50L80.50 12.25ZM73.50 5.25L73.50 10.50L78.75 10.50L78.75 5.25L73.50 5.25ZM96.25 12.25L85.75 12.25L85.75 10.50L84 10.50L84 5.25L85.75 5.25L85.75 3.50L92.75 3.50L92.75 0L96.25 0L96.25 12.25ZM87.50 5.25L87.50 10.50L92.75 10.50L92.75 5.25L87.50 5.25ZM108.50 12.25L99.75 12.25L99.75 10.50L98 10.50L98 5.25L99.75 5.25L99.75 3.50L108.50 3.50L108.50 5.25L110.25 5.25L110.25 8.75L101.50 8.75L101.50 10.50L108.50 10.50L108.50 12.25ZM101.50 5.25L101.50 7L106.75 7L106.75 5.25L101.50 5.25Z"></path></g><!----><g data-v-423bf9ae="" id="f216ad16-e542-47ed-ad77-badfcf069099" transform="matrix(7.5,0,0,7.5,0,-15)" stroke="none" fill="black"><path d="M7.969 2L6 13.844 5.969 14h2.063l1.969-11.844.031-.156H7.969zM5 3.813l-.531.344-4 2.5L0 6.938v2.126l.469.281 4 2.5.531.344V9.814L2.094 8.001 5 6.188V3.813zm6 0v2.375l2.906 1.813L11 9.814v2.375l.531-.344 4-2.5.469-.281V6.938l-.469-.281-4-2.5L11 3.813z"></path></g><!----></svg>