<svg version="1.1" xmlns="http://www.w3.org/2000/svg" viewBox="0 0 1098.5999552408853 947.3999354044599" width="1098.5999552408853" height="947.3999354044599">
  <!-- svg-source:excalidraw -->
  
  <defs>
    <style class="style-fonts">
      @font-face {
        font-family: "Virgil";
        src: url("https://excalidraw.com/Virgil.woff2");
      }
      @font-face {
        font-family: "Cascadia";
        src: url("https://excalidraw.com/Cascadia.woff2");
      }
      @font-face {
        font-family: "Assistant";
        src: url("https://excalidraw.com/Assistant-Regular.woff2");
      }
    </style>
    
  </defs>
  <g stroke-linecap="round" transform="translate(594.6666870117188 10) rotate(0 122 42.400001525878906)"><path d="M21.2 0 C95.45 0.18, 174.21 -0.51, 222.8 0 C237.36 -1.3, 243.86 5.55, 244 21.2 C243.92 30.31, 244.38 43.08, 244 63.6 C241.58 76.24, 233.45 87.76, 222.8 84.8 C155.2 86.53, 83.2 89.85, 21.2 84.8 C5.76 86.81, 1.91 74.56, 0 63.6 C-0.05 52.31, 3.6 48.07, 0 21.2 C-2.69 6.81, 6.94 -1.19, 21.2 0" stroke="none" stroke-width="0" fill="#1971c2"></path><path d="M21.2 0 C89.19 2.87, 160.62 2.86, 222.8 0 M21.2 0 C89.02 0.05, 155.85 -0.81, 222.8 0 M222.8 0 C237.12 -1.97, 243.17 6.1, 244 21.2 M222.8 0 C235.44 -0.25, 243.64 9.29, 244 21.2 M244 21.2 C243.07 36.49, 245.43 51.26, 244 63.6 M244 21.2 C245.38 38.63, 244.35 54.75, 244 63.6 M244 63.6 C245.38 75.93, 238.03 84.15, 222.8 84.8 M244 63.6 C245.97 78.7, 237.68 86.54, 222.8 84.8 M222.8 84.8 C154.19 83.07, 81.13 81.98, 21.2 84.8 M222.8 84.8 C163.24 85.73, 104.85 86.82, 21.2 84.8 M21.2 84.8 C5.69 83.34, 1.21 76.68, 0 63.6 M21.2 84.8 C4.81 84.62, -1.23 77.01, 0 63.6 M0 63.6 C1.09 53.65, -1.13 43.16, 0 21.2 M0 63.6 C-0.13 48.33, 0.99 34.58, 0 21.2 M0 21.2 C1.96 6.57, 8.78 -1.72, 21.2 0 M0 21.2 C0.8 7.79, 8.2 -2.15, 21.2 0" stroke="#ffffff" stroke-width="2" fill="none"></path></g><g transform="translate(645.0807495117188 20.200001525878918) rotate(0 71.5859375 32.19999999999999)"><text x="71.5859375" y="0" font-family="Helvetica, Segoe UI Emoji" font-size="28px" fill="#ffffff" text-anchor="middle" style="white-space: pre;" direction="ltr" dominant-baseline="text-before-edge">Arrays and </text><text x="71.5859375" y="32.199999999999996" font-family="Helvetica, Segoe UI Emoji" font-size="28px" fill="#ffffff" text-anchor="middle" style="white-space: pre;" direction="ltr" dominant-baseline="text-before-edge">Hashing</text></g><g stroke-linecap="round" transform="translate(352.46671549479174 451.19998931884766) rotate(0 122 42.400001525878906)"><path d="M21.2 0 C63.48 -0.89, 104.89 -3.1, 222.8 0 C240.47 -3.16, 246.81 4.11, 244 21.2 C247 34.02, 246.12 49.93, 244 63.6 C242.88 79.35, 238.44 85.68, 222.8 84.8 C154.44 83.9, 84.63 86.43, 21.2 84.8 C9.69 82.58, 0.72 81.21, 0 63.6 C4.04 53.95, 2.79 41.31, 0 21.2 C0.48 6.99, 8.46 1.02, 21.2 0" stroke="none" stroke-width="0" fill="#1971c2"></path><path d="M21.2 0 C79.2 1.61, 133.62 -0.97, 222.8 0 M21.2 0 C75.9 0.97, 132.37 -0.55, 222.8 0 M222.8 0 C236.79 -0.07, 243.34 7.61, 244 21.2 M222.8 0 C236.22 2.03, 245.99 5.83, 244 21.2 M244 21.2 C245.18 36.63, 244.32 50.91, 244 63.6 M244 21.2 C244.33 36.65, 243.16 51.14, 244 63.6 M244 63.6 C243.96 78.16, 235.55 85.81, 222.8 84.8 M244 63.6 C243.94 78.15, 234.92 85.45, 222.8 84.8 M222.8 84.8 C169.74 85.87, 113.95 84.51, 21.2 84.8 M222.8 84.8 C177.9 85.22, 135 85.83, 21.2 84.8 M21.2 84.8 C9.01 83.91, 1.2 79.14, 0 63.6 M21.2 84.8 C9.31 82.93, 1.31 76.28, 0 63.6 M0 63.6 C-0.23 45.71, 1.41 33.05, 0 21.2 M0 63.6 C-0.41 54.29, 0.01 46, 0 21.2 M0 21.2 C1.86 5.99, 6.63 1.07, 21.2 0 M0 21.2 C1.85 4.98, 9.09 1.72, 21.2 0" stroke="#ffffff" stroke-width="2" fill="none"></path></g><g transform="translate(407.53605143229174 477.49999084472654) rotate(0 66.9306640625 16.100000000000023)"><text x="66.9306640625" y="0" font-family="Helvetica, Segoe UI Emoji" font-size="28px" fill="#ffffff" text-anchor="middle" style="white-space: pre;" direction="ltr" dominant-baseline="text-before-edge">Linked List</text></g><g stroke-linecap="round" transform="translate(762.066650390625 207.1999740600586) rotate(0 122 42.400001525878906)"><path d="M21.2 0 C78.72 0.38, 132.42 0.56, 222.8 0 C237.42 -0.55, 242.78 10.19, 244 21.2 C243.35 34.98, 245.98 46.39, 244 63.6 C245.72 79.29, 238.49 86.77, 222.8 84.8 C179.05 83.04, 131.25 88.15, 21.2 84.8 C4.52 82.13, 1.79 81.21, 0 63.6 C0.01 50.72, 0.92 39.02, 0 21.2 C2.74 5.33, 9.64 -0.11, 21.2 0" stroke="none" stroke-width="0" fill="#1971c2"></path><path d="M21.2 0 C91.9 0.84, 163.4 0.44, 222.8 0 M21.2 0 C100.66 1.32, 179.96 1.6, 222.8 0 M222.8 0 C236.32 1.76, 245.73 5.99, 244 21.2 M222.8 0 C238.4 0.14, 245.35 8.39, 244 21.2 M244 21.2 C245.36 34.44, 244.2 47.12, 244 63.6 M244 21.2 C243.58 34.1, 242.9 47.08, 244 63.6 M244 63.6 C243.95 78.09, 235.18 85.36, 222.8 84.8 M244 63.6 C243.24 77.87, 236.56 85.72, 222.8 84.8 M222.8 84.8 C145.59 83.29, 72.31 83.69, 21.2 84.8 M222.8 84.8 C177.57 84.34, 131.14 85.37, 21.2 84.8 M21.2 84.8 C9.01 83.17, 1.14 76.47, 0 63.6 M21.2 84.8 C8.95 83.95, -0.76 77.29, 0 63.6 M0 63.6 C-1.97 54.15, 0.13 44.43, 0 21.2 M0 63.6 C0.96 51.17, -0.19 40.36, 0 21.2 M0 21.2 C1.61 5.25, 8.83 1.5, 21.2 0 M0 21.2 C-2.23 9.26, 7 0.97, 21.2 0" stroke="#ffffff" stroke-width="2" fill="none"></path></g><g transform="translate(849.052978515625 233.49997558593748) rotate(0 35.013671875 16.099999999999994)"><text x="35.013671875" y="0" font-family="Helvetica, Segoe UI Emoji" font-size="28px" fill="#ffffff" text-anchor="middle" style="white-space: pre;" direction="ltr" dominant-baseline="text-before-edge">Stack</text></g><g stroke-linecap="round" transform="translate(344.73323567708326 210.13331858317054) rotate(0 122 42.400001525878906)"><path d="M21.2 0 C64.43 2.18, 105.7 5.47, 222.8 0 C236.46 2.23, 246.14 5.95, 244 21.2 C246.04 37.38, 245.87 52.42, 244 63.6 C241.43 80.05, 237.19 87.42, 222.8 84.8 C172.46 85.55, 128.29 91.06, 21.2 84.8 C7.14 87.02, -2.86 78.22, 0 63.6 C2.44 49.23, 2.28 38.23, 0 21.2 C-2.35 8.01, 10.53 2.82, 21.2 0" stroke="none" stroke-width="0" fill="#1971c2"></path><path d="M21.2 0 C74.35 2.32, 122.78 1.08, 222.8 0 M21.2 0 C80.68 0.3, 141.48 -0.97, 222.8 0 M222.8 0 C238.21 0.13, 245.18 8.22, 244 21.2 M222.8 0 C236.94 0.34, 242.7 8.55, 244 21.2 M244 21.2 C244.01 33.09, 242.07 48.73, 244 63.6 M244 21.2 C243.68 34.99, 242.83 48.71, 244 63.6 M244 63.6 C243.34 77.85, 236.61 85.6, 222.8 84.8 M244 63.6 C245.74 76.09, 236.94 82.96, 222.8 84.8 M222.8 84.8 C178.08 85.45, 135.85 85.43, 21.2 84.8 M222.8 84.8 C172.12 85.34, 120.19 85.51, 21.2 84.8 M21.2 84.8 C8.7 84.06, -0.66 77.35, 0 63.6 M21.2 84.8 C5.11 86.25, 2.1 75.78, 0 63.6 M0 63.6 C-0.48 51.49, 1.2 41.49, 0 21.2 M0 63.6 C0.9 52.26, 0.97 43.48, 0 21.2 M0 21.2 C-1.94 8.97, 7.01 0.85, 21.2 0 M0 21.2 C-0.7 8.4, 4.8 2.26, 21.2 0" stroke="#ffffff" stroke-width="2" fill="none"></path></g><g transform="translate(385.80940755208326 236.43332010904942) rotate(0 80.923828125 16.099999999999994)"><text x="80.923828125" y="0" font-family="Helvetica, Segoe UI Emoji" font-size="28px" fill="#ffffff" text-anchor="middle" style="white-space: pre;" direction="ltr" dominant-baseline="text-before-edge">Two Pointers</text></g><g stroke-linecap="round" transform="translate(10 451.73336029052734) rotate(0 122 42.400001525878906)"><path d="M21.2 0 C82.46 5.76, 140.28 -0.05, 222.8 0 C240.5 -3.55, 246.62 3.52, 244 21.2 C242.25 37.9, 244.59 53.48, 244 63.6 C245.28 77.43, 234.47 83.4, 222.8 84.8 C147.21 87.12, 74.36 87.96, 21.2 84.8 C5.24 84.41, 2.02 80.85, 0 63.6 C3.94 50.9, 0.64 31.41, 0 21.2 C1.01 3.96, 6.72 -1.54, 21.2 0" stroke="none" stroke-width="0" fill="#1971c2"></path><path d="M21.2 0 C94.3 -0.48, 167.16 -0.42, 222.8 0 M21.2 0 C90.53 -0.95, 158.3 -0.1, 222.8 0 M222.8 0 C236.07 -1.98, 242.55 5.11, 244 21.2 M222.8 0 C237.64 -1.13, 246.02 6.47, 244 21.2 M244 21.2 C244.6 39.25, 242.38 52.26, 244 63.6 M244 21.2 C243.71 32.51, 244.64 45.98, 244 63.6 M244 63.6 C242 77.86, 235.12 85.29, 222.8 84.8 M244 63.6 C244.43 77.02, 234.94 86.31, 222.8 84.8 M222.8 84.8 C166.96 85.63, 114.83 85.95, 21.2 84.8 M222.8 84.8 C181.16 85.03, 138.39 84.11, 21.2 84.8 M21.2 84.8 C6.65 84.55, 0.72 76.06, 0 63.6 M21.2 84.8 C7.22 83.06, -1.19 76.18, 0 63.6 M0 63.6 C0.63 54.47, -0.48 42.76, 0 21.2 M0 63.6 C0.75 53.21, 1.41 43.77, 0 21.2 M0 21.2 C-0.16 6.58, 8.33 -0.14, 21.2 0 M0 21.2 C1.78 8.17, 6.36 -1.15, 21.2 0" stroke="#ffffff" stroke-width="2" fill="none"></path></g><g transform="translate(39.3935546875 478.0333618164062) rotate(0 92.6064453125 16.100000000000023)"><text x="92.6064453125" y="0" font-family="Helvetica, Segoe UI Emoji" font-size="28px" fill="#ffffff" text-anchor="middle" style="white-space: pre;" direction="ltr" dominant-baseline="text-before-edge">Sliding window</text></g><g stroke-linecap="round" transform="translate(688.7331949869792 447.4666163126627) rotate(0 122 42.400001525878906)"><path d="M21.2 0 C85.86 -0.07, 145.32 1.34, 222.8 0 C239.94 0.28, 243.35 6.78, 244 21.2 C246.97 35.05, 242.67 49.02, 244 63.6 C241.23 78.28, 237.28 84.59, 222.8 84.8 C163.6 81.06, 104.35 82.08, 21.2 84.8 C9.78 81.8, -2.15 76.26, 0 63.6 C-1.43 49.41, -1.86 29.26, 0 21.2 C0.69 9.36, 4.47 -3.39, 21.2 0" stroke="none" stroke-width="0" fill="#1971c2"></path><path d="M21.2 0 C72.81 1.91, 123.3 2, 222.8 0 M21.2 0 C69.26 -0.93, 114.97 -1.55, 222.8 0 M222.8 0 C238.13 -0.99, 245.63 5.39, 244 21.2 M222.8 0 C238.81 -2.02, 245.66 5.98, 244 21.2 M244 21.2 C244.52 30.85, 242.58 42.33, 244 63.6 M244 21.2 C243.63 29.2, 242.66 37.82, 244 63.6 M244 63.6 C242.29 77.48, 237.82 85.09, 222.8 84.8 M244 63.6 C243.44 78.98, 237.29 86.85, 222.8 84.8 M222.8 84.8 C151.02 82.47, 79.02 85.19, 21.2 84.8 M222.8 84.8 C151.68 85.06, 78.44 85.34, 21.2 84.8 M21.2 84.8 C8.44 85.88, 0.86 76.98, 0 63.6 M21.2 84.8 C7.78 87.02, -1.3 77.79, 0 63.6 M0 63.6 C-0.98 51.01, -1.58 40.34, 0 21.2 M0 63.6 C0.43 49.53, -0.77 37.14, 0 21.2 M0 21.2 C0.43 8.37, 5.35 1.53, 21.2 0 M0 21.2 C-0.16 9.13, 8.84 0.17, 21.2 0" stroke="#ffffff" stroke-width="2" fill="none"></path></g><g transform="translate(722.8025309244792 473.7666178385416) rotate(0 87.9306640625 16.100000000000023)"><text x="87.9306640625" y="0" font-family="Helvetica, Segoe UI Emoji" font-size="28px" fill="#ffffff" text-anchor="middle" style="white-space: pre;" direction="ltr" dominant-baseline="text-before-edge">Binary Search</text></g><g stroke-linecap="round" transform="translate(514.1333618164062 642.7999801635742) rotate(0 122 42.400001525878906)"><path d="M21.2 0 C94.38 0.34, 165.35 -3.26, 222.8 0 C234.82 -2.77, 244.48 4.32, 244 21.2 C245.18 29.24, 241.48 44.75, 244 63.6 C243.05 76.47, 239.45 86.58, 222.8 84.8 C179.94 85.95, 141.6 86.47, 21.2 84.8 C6.31 87.5, 2.21 77.14, 0 63.6 C-1.63 52.2, -1.72 37.96, 0 21.2 C-3.46 8.67, 5.71 -2.24, 21.2 0" stroke="none" stroke-width="0" fill="#1971c2"></path><path d="M21.2 0 C65.1 0.4, 105.85 0.55, 222.8 0 M21.2 0 C86.66 -1.74, 150.97 -1.6, 222.8 0 M222.8 0 C235.97 1.02, 244.02 8.42, 244 21.2 M222.8 0 C239.01 0.97, 242.56 8.02, 244 21.2 M244 21.2 C242.5 31.16, 242.84 43.81, 244 63.6 M244 21.2 C243.68 31.47, 244.7 40.17, 244 63.6 M244 63.6 C243.97 78.55, 236.6 85.47, 222.8 84.8 M244 63.6 C241.89 76.4, 235.32 83.86, 222.8 84.8 M222.8 84.8 C157.57 84.93, 94.13 84.93, 21.2 84.8 M222.8 84.8 C160.59 82.44, 100.44 83.09, 21.2 84.8 M21.2 84.8 C6.85 84.8, -0.06 76.18, 0 63.6 M21.2 84.8 C7.42 86.37, -1.21 76.61, 0 63.6 M0 63.6 C-1.36 49.37, 1.22 35.74, 0 21.2 M0 63.6 C-0.72 48.3, -0.24 31.74, 0 21.2 M0 21.2 C0.97 8.01, 9.02 -0.79, 21.2 0 M0 21.2 C-0.73 9.09, 7.45 1.26, 21.2 0" stroke="#ffffff" stroke-width="2" fill="none"></path></g><g transform="translate(600.8667602539062 669.0999816894531) rotate(0 35.2666015625 16.100000000000023)"><text x="35.2666015625" y="0" font-family="Helvetica, Segoe UI Emoji" font-size="28px" fill="#ffffff" text-anchor="middle" style="white-space: pre;" direction="ltr" dominant-baseline="text-before-edge">Trees</text></g><g stroke-linecap="round" transform="translate(201.7333374023433 852.599932352702) rotate(0 122 42.40000152587896)"><path d="M21.2 0 C103.07 1.8, 180.93 2.27, 222.8 0 C233.34 -1.18, 243.62 8.42, 244 21.2 C246.69 36.48, 242.15 42.61, 244 63.6 C245.77 77.46, 237.31 82.27, 222.8 84.8 C152.87 83.09, 90.31 87.1, 21.2 84.8 C4.71 85.06, 2.73 80.57, 0 63.6 C0.79 53.94, -1.93 44.2, 0 21.2 C2.11 3.58, 8.2 -3.11, 21.2 0" stroke="none" stroke-width="0" fill="#1971c2"></path><path d="M21.2 0 C93.54 2.09, 166.61 0.95, 222.8 0 M21.2 0 C70.14 -1.4, 117.94 -0.94, 222.8 0 M222.8 0 C237.19 -1.08, 245.54 5.84, 244 21.2 M222.8 0 C235.92 -2.02, 244.84 6.17, 244 21.2 M244 21.2 C242.3 33.47, 242.56 42.98, 244 63.6 M244 21.2 C243.74 29.28, 243.07 37.32, 244 63.6 M244 63.6 C242.59 77.57, 238.57 84.88, 222.8 84.8 M244 63.6 C241.99 76.71, 236.2 85.9, 222.8 84.8 M222.8 84.8 C170.21 84.31, 115.31 83.57, 21.2 84.8 M222.8 84.8 C141.39 85.32, 61.6 84.13, 21.2 84.8 M21.2 84.8 C5.63 85.25, 0.02 77.38, 0 63.6 M21.2 84.8 C9.24 84.45, 0.46 76.15, 0 63.6 M0 63.6 C-1.22 46.95, -1.48 32.62, 0 21.2 M0 63.6 C-0.97 51.87, -0.91 39.55, 0 21.2 M0 21.2 C-0.21 5.85, 5.41 0.31, 21.2 0 M0 21.2 C1.25 5.05, 6.69 0.57, 21.2 0" stroke="#ffffff" stroke-width="2" fill="none"></path></g><g transform="translate(293.1425170898433 878.8999338785809) rotate(0 30.5908203125 16.100000000000023)"><text x="30.5908203125" y="0" font-family="Helvetica, Segoe UI Emoji" font-size="28px" fill="#ffffff" text-anchor="middle" style="white-space: pre;" direction="ltr" dominant-baseline="text-before-edge">Tries</text></g><g stroke-linecap="round" transform="translate(516.666727701823 848.6666742960613) rotate(0 122 42.400001525878906)"><path d="M21.2 0 C78.73 -3.17, 142.39 -3.11, 222.8 0 C236.41 -0.22, 242.26 10.21, 244 21.2 C244.81 34.22, 244.35 51.84, 244 63.6 C244.35 81.25, 236.43 86.94, 222.8 84.8 C164.93 88.33, 112.59 87.06, 21.2 84.8 C8.67 86.07, 1.58 80.03, 0 63.6 C0.97 55.68, 0.02 44.03, 0 21.2 C-1.39 4.78, 9.55 1.76, 21.2 0" stroke="none" stroke-width="0" fill="#1971c2"></path><path d="M21.2 0 C78.45 2.23, 133.26 0.74, 222.8 0 M21.2 0 C96.36 2.04, 172.84 1.35, 222.8 0 M222.8 0 C235.57 -0.3, 245.17 5.13, 244 21.2 M222.8 0 C237.65 -1.99, 242.59 7.85, 244 21.2 M244 21.2 C244.29 35.13, 244.92 52.88, 244 63.6 M244 21.2 C244.45 35.47, 243.78 48.88, 244 63.6 M244 63.6 C242.22 78.17, 237.03 85.35, 222.8 84.8 M244 63.6 C243.44 77.55, 235.12 84.58, 222.8 84.8 M222.8 84.8 C150.68 84.84, 78.9 87.79, 21.2 84.8 M222.8 84.8 C158.45 83.74, 95.29 82.68, 21.2 84.8 M21.2 84.8 C8.83 86.32, -0.59 76.42, 0 63.6 M21.2 84.8 C6.83 85.08, -0.97 78.53, 0 63.6 M0 63.6 C-1.4 54.02, 0.73 44.62, 0 21.2 M0 63.6 C0.03 50.26, 1.15 35.8, 0 21.2 M0 21.2 C-0.53 6.98, 7.43 1.21, 21.2 0 M0 21.2 C1.28 5.47, 5.21 -0.56, 21.2 0" stroke="#ffffff" stroke-width="2" fill="none"></path></g><g transform="translate(553.860087076823 858.8666758219401) rotate(0 84.806640625 32.200000000000045)"><text x="84.806640625" y="0" font-family="Helvetica, Segoe UI Emoji" font-size="28px" fill="#ffffff" text-anchor="middle" style="white-space: pre;" direction="ltr" dominant-baseline="text-before-edge">Heap/Priority </text><text x="84.806640625" y="32.199999999999996" font-family="Helvetica, Segoe UI Emoji" font-size="28px" fill="#ffffff" text-anchor="middle" style="white-space: pre;" direction="ltr" dominant-baseline="text-before-edge">Queue</text></g><g stroke-linecap="round" transform="translate(844.5999552408853 847.3333613077799) rotate(0 122 42.40000152587885)"><path d="M21.2 0 C78.89 0.43, 140.42 -1.03, 222.8 0 C239.16 -0.67, 242.22 7.37, 244 21.2 C244.9 32.89, 246.97 46.84, 244 63.6 C246.02 75.86, 238.81 85.74, 222.8 84.8 C170.55 81.37, 122.53 82.12, 21.2 84.8 C8.71 81.33, 1.66 77.3, 0 63.6 C2.06 53.71, -1.94 37.86, 0 21.2 C-3.28 9.93, 8.19 1.07, 21.2 0" stroke="none" stroke-width="0" fill="#1971c2"></path><path d="M21.2 0 C84.68 -0.19, 146.1 1.1, 222.8 0 M21.2 0 C66.69 0.03, 112.09 0.02, 222.8 0 M222.8 0 C238.21 -1.89, 245.69 9.05, 244 21.2 M222.8 0 C237.96 0.51, 244.42 5.7, 244 21.2 M244 21.2 C244.71 30.91, 244.12 45.17, 244 63.6 M244 21.2 C243.54 35.73, 243.08 48.7, 244 63.6 M244 63.6 C243.32 76.05, 236.23 84.98, 222.8 84.8 M244 63.6 C244.87 79.39, 236.05 85.61, 222.8 84.8 M222.8 84.8 C178.17 84.48, 137.38 85.52, 21.2 84.8 M222.8 84.8 C171.28 85.42, 119.09 85.85, 21.2 84.8 M21.2 84.8 C5.89 83.09, 0.65 76.49, 0 63.6 M21.2 84.8 C6.89 85.61, 0.13 77.6, 0 63.6 M0 63.6 C1.52 50.9, 0.55 39.59, 0 21.2 M0 63.6 C-0.65 52.28, -1.25 39.88, 0 21.2 M0 21.2 C0.77 8.3, 7.72 -0.15, 21.2 0 M0 21.2 C-1.91 9.27, 6.87 0.2, 21.2 0" stroke="#ffffff" stroke-width="2" fill="none"></path></g><g transform="translate(886.4554239908853 873.6333628336588) rotate(0 80.14453125 16.100000000000023)"><text x="80.14453125" y="0" font-family="Helvetica, Segoe UI Emoji" font-size="28px" fill="#ffffff" text-anchor="middle" style="white-space: pre;" direction="ltr" dominant-baseline="text-before-edge">Backtracking</text></g><g stroke-linecap="round"><g transform="translate(712.2667236328125 97.46669006347656) rotate(0 -101.91731930077793 55.16665776570636)"><path d="M0 0 C-4.8 8.67, 5.17 33.61, -28.8 52 C-62.77 70.39, -174.66 100.61, -203.83 110.33 M0 0 C-4.8 8.67, 5.17 33.61, -28.8 52 C-62.77 70.39, -174.66 100.61, -203.83 110.33" stroke="#ffffff" stroke-width="2" fill="none"></path></g><g transform="translate(712.2667236328125 97.46669006347656) rotate(0 -101.91731930077793 55.16665776570636)"><path d="M-183.83 95.34 C-189.96 99.93, -196.1 104.53, -203.83 110.33 M-183.83 95.34 C-188.74 99.01, -193.64 102.69, -203.83 110.33" stroke="#ffffff" stroke-width="2" fill="none"></path></g><g transform="translate(712.2667236328125 97.46669006347656) rotate(0 -101.91731930077793 55.16665776570636)"><path d="M-178.87 111.7 C-186.53 111.28, -194.18 110.86, -203.83 110.33 M-178.87 111.7 C-184.99 111.37, -191.12 111.03, -203.83 110.33" stroke="#ffffff" stroke-width="2" fill="none"></path></g></g><mask></mask><g stroke-linecap="round"><g transform="translate(712.3543257295516 94.46669006347662) rotate(0 90.63921618501513 54.699966430664034)"><path d="M0 0 C4.25 9.7, -4.7 39.97, 25.51 58.2 C55.73 76.43, 155.32 100.87, 181.28 109.4 M0 0 C4.25 9.7, -4.7 39.97, 25.51 58.2 C55.73 76.43, 155.32 100.87, 181.28 109.4" stroke="#ffffff" stroke-width="2" fill="none"></path></g><g transform="translate(712.3543257295516 94.46669006347662) rotate(0 90.63921618501513 54.699966430664034)"><path d="M156.34 111.1 C164.71 110.53, 173.08 109.96, 181.28 109.4 M156.34 111.1 C161.67 110.73, 167.01 110.37, 181.28 109.4" stroke="#ffffff" stroke-width="2" fill="none"></path></g><g transform="translate(712.3543257295516 94.46669006347662) rotate(0 90.63921618501513 54.699966430664034)"><path d="M161.08 94.67 C167.86 99.61, 174.64 104.56, 181.28 109.4 M161.08 94.67 C165.4 97.82, 169.72 100.97, 181.28 109.4" stroke="#ffffff" stroke-width="2" fill="none"></path></g></g><mask></mask><g stroke-linecap="round"><g transform="translate(459.5348579513842 302.33845245173217) rotate(0 -164.9422709257178 73.04166879681279)"><path d="M0 0 C-6.71 8.72, 14.73 27.99, -40.25 52.33 C-95.23 76.68, -281.61 130.46, -329.88 146.08 M0 0 C-6.71 8.72, 14.73 27.99, -40.25 52.33 C-95.23 76.68, -281.61 130.46, -329.88 146.08" stroke="#ffffff" stroke-width="2" fill="none"></path></g><g transform="translate(459.5348579513842 302.33845245173217) rotate(0 -164.9422709257178 73.04166879681279)"><path d="M-309.93 131.02 C-317.84 136.98, -325.74 142.95, -329.88 146.08 M-309.93 131.02 C-316.79 136.19, -323.64 141.37, -329.88 146.08" stroke="#ffffff" stroke-width="2" fill="none"></path></g><g transform="translate(459.5348579513842 302.33845245173217) rotate(0 -164.9422709257178 73.04166879681279)"><path d="M-304.92 147.37 C-314.81 146.86, -324.69 146.35, -329.88 146.08 M-304.92 147.37 C-313.49 146.93, -322.07 146.49, -329.88 146.08" stroke="#ffffff" stroke-width="2" fill="none"></path></g></g><mask></mask><g stroke-linecap="round"><g transform="translate(461.9989335939099 297.8665822347005) rotate(0 174.57708103826826 73.08538810253336)"><path d="M0 0 C7.55 10.66, -12.88 39.58, 45.31 63.94 C103.5 88.31, 298.51 132.47, 349.15 146.17 M0 0 C7.55 10.66, -12.88 39.58, 45.31 63.94 C103.5 88.31, 298.51 132.47, 349.15 146.17" stroke="#ffffff" stroke-width="2" fill="none"></path></g><g transform="translate(461.9989335939099 297.8665822347005) rotate(0 174.57708103826826 73.08538810253336)"><path d="M324.29 148.78 C330.94 148.08, 337.59 147.38, 349.15 146.17 M324.29 148.78 C332.48 147.92, 340.67 147.06, 349.15 146.17" stroke="#ffffff" stroke-width="2" fill="none"></path></g><g transform="translate(461.9989335939099 297.8665822347005) rotate(0 174.57708103826826 73.08538810253336)"><path d="M328.43 132.19 C333.97 135.93, 339.51 139.67, 349.15 146.17 M328.43 132.19 C335.26 136.8, 342.09 141.4, 349.15 146.17" stroke="#ffffff" stroke-width="2" fill="none"></path></g></g><mask></mask><g stroke-linecap="round"><g transform="translate(460.03165657956515 300.8000030517578) rotate(0 1.8508302388632956 75.33335367838544)"><path d="M0 0 C0.62 25.11, 3.08 125.56, 3.7 150.67 M0 0 C0.62 25.11, 3.08 125.56, 3.7 150.67" stroke="#ffffff" stroke-width="2" fill="none"></path></g><g transform="translate(460.03165657956515 300.8000030517578) rotate(0 1.8508302388632956 75.33335367838544)"><path d="M-5.42 127.39 C-3.13 133.25, -0.83 139.1, 3.7 150.67 M-5.42 127.39 C-3.38 132.6, -1.34 137.82, 3.7 150.67" stroke="#ffffff" stroke-width="2" fill="none"></path></g><g transform="translate(460.03165657956515 300.8000030517578) rotate(0 1.8508302388632956 75.33335367838544)"><path d="M11.67 126.97 C9.67 132.93, 7.66 138.9, 3.7 150.67 M11.67 126.97 C9.89 132.28, 8.1 137.58, 3.7 150.67" stroke="#ffffff" stroke-width="2" fill="none"></path></g></g><mask></mask><g stroke-linecap="round"><g transform="translate(483.5585376445015 538.1333262125651) rotate(0 75.58150627498645 51.83332697550463)"><path d="M0 0 C20.03 6, 94.98 18.72, 120.17 36 C145.37 53.28, 146 92.39, 151.16 103.67 M0 0 C20.03 6, 94.98 18.72, 120.17 36 C145.37 53.28, 146 92.39, 151.16 103.67" stroke="#ffffff" stroke-width="2" fill="none"></path></g><g transform="translate(483.5585376445015 538.1333262125651) rotate(0 75.58150627498645 51.83332697550463)"><path d="M137.02 83.05 C140.74 88.48, 144.47 93.91, 151.16 103.67 M137.02 83.05 C141.28 89.26, 145.54 95.47, 151.16 103.67" stroke="#ffffff" stroke-width="2" fill="none"></path></g><g transform="translate(483.5585376445015 538.1333262125651) rotate(0 75.58150627498645 51.83332697550463)"><path d="M153.58 78.78 C152.94 85.34, 152.3 91.89, 151.16 103.67 M153.58 78.78 C152.85 86.28, 152.12 93.77, 151.16 103.67" stroke="#ffffff" stroke-width="2" fill="none"></path></g></g><mask></mask><g stroke-linecap="round"><g transform="translate(810.3999837239583 534.1333363850912) rotate(0 -89.08917363715568 52.66667683919269)"><path d="M0 0 C-23.56 6.89, -111.64 23.78, -141.33 41.33 C-171.03 58.89, -172.04 94.67, -178.18 105.33 M0 0 C-23.56 6.89, -111.64 23.78, -141.33 41.33 C-171.03 58.89, -172.04 94.67, -178.18 105.33" stroke="#ffffff" stroke-width="2" fill="none"></path></g><g transform="translate(810.3999837239583 534.1333363850912) rotate(0 -89.08917363715568 52.66667683919269)"><path d="M-178.88 80.34 C-178.62 89.76, -178.35 99.17, -178.18 105.33 M-178.88 80.34 C-178.7 86.84, -178.52 93.34, -178.18 105.33" stroke="#ffffff" stroke-width="2" fill="none"></path></g><g transform="translate(810.3999837239583 534.1333363850912) rotate(0 -89.08917363715568 52.66667683919269)"><path d="M-162.66 85.74 C-168.5 93.12, -174.35 100.5, -178.18 105.33 M-162.66 85.74 C-166.69 90.83, -170.73 95.93, -178.18 105.33" stroke="#ffffff" stroke-width="2" fill="none"></path></g></g><mask></mask><g stroke-linecap="round"><g transform="translate(638.9364332879809 730.1334991455078) rotate(0 -164.519676996316 60.66658020019531)"><path d="M0 0 C-8.19 8.67, 5.7 31.78, -49.14 52 C-103.98 72.22, -282.39 109.78, -329.04 121.33 M0 0 C-8.19 8.67, 5.7 31.78, -49.14 52 C-103.98 72.22, -282.39 109.78, -329.04 121.33" stroke="#ffffff" stroke-width="2" fill="none"></path></g><g transform="translate(638.9364332879809 730.1334991455078) rotate(0 -164.519676996316 60.66658020019531)"><path d="M-308.06 107.74 C-315.94 112.84, -323.81 117.94, -329.04 121.33 M-308.06 107.74 C-314.82 112.12, -321.58 116.5, -329.04 121.33" stroke="#ffffff" stroke-width="2" fill="none"></path></g><g transform="translate(638.9364332879809 730.1334991455078) rotate(0 -164.519676996316 60.66658020019531)"><path d="M-304.23 124.4 C-313.54 123.25, -322.86 122.1, -329.04 121.33 M-304.23 124.4 C-312.22 123.41, -320.22 122.42, -329.04 121.33" stroke="#ffffff" stroke-width="2" fill="none"></path></g></g><mask></mask><g stroke-linecap="round"><g transform="translate(641.5677484143489 728.7999827067058) rotate(0 164.41611765480468 56.00003560384107)"><path d="M0 0 C7.47 10, -9.97 41.33, 44.83 60 C99.64 78.67, 281.5 103.33, 328.83 112 M0 0 C7.47 10, -9.97 41.33, 44.83 60 C99.64 78.67, 281.5 103.33, 328.83 112" stroke="#ffffff" stroke-width="2" fill="none"></path></g><g transform="translate(641.5677484143489 728.7999827067058) rotate(0 164.41611765480468 56.00003560384107)"><path d="M304.28 116.72 C313.45 114.96, 322.63 113.19, 328.83 112 M304.28 116.72 C311.41 115.35, 318.53 113.98, 328.83 112" stroke="#ffffff" stroke-width="2" fill="none"></path></g><g transform="translate(641.5677484143489 728.7999827067058) rotate(0 164.41611765480468 56.00003560384107)"><path d="M306.99 99.84 C315.15 104.38, 323.31 108.93, 328.83 112 M306.99 99.84 C313.33 103.37, 319.67 106.9, 328.83 112" stroke="#ffffff" stroke-width="2" fill="none"></path></g></g><mask></mask><g stroke-linecap="round"><g transform="translate(638.6994197335122 730.1333465576173) rotate(0 0.37778973535267824 58.666687011718636)"><path d="M0 0 C0.13 19.56, 0.63 97.78, 0.76 117.33 M0 0 C0.13 19.56, 0.63 97.78, 0.76 117.33" stroke="#ffffff" stroke-width="2" fill="none"></path></g><g transform="translate(638.6994197335122 730.1333465576173) rotate(0 0.37778973535267824 58.666687011718636)"><path d="M-7.95 93.9 C-5.03 101.75, -2.11 109.61, 0.76 117.33 M-7.95 93.9 C-4.87 102.19, -1.79 110.47, 0.76 117.33" stroke="#ffffff" stroke-width="2" fill="none"></path></g><g transform="translate(638.6994197335122 730.1333465576173) rotate(0 0.37778973535267824 58.666687011718636)"><path d="M9.15 93.79 C6.34 101.68, 3.52 109.57, 0.76 117.33 M9.15 93.79 C6.18 102.11, 3.21 110.44, 0.76 117.33" stroke="#ffffff" stroke-width="2" fill="none"></path></g></g><mask></mask></svg>